<svg xmlns="http://www.w3.org/2000/svg" viewBox="0 0 512 512" role="img" aria-labelledby="title description">
  <title id="title">QEH</title>
  <desc id="description">Icône commune aux univers QEH Outlet, QEH Énergies et QEH Partner</desc>
  <defs>
    <linearGradient id="background" x1="0" y1="0" x2="1" y2="1">
      <stop offset="0" stop-color="#020711"/>
      <stop offset="1" stop-color="#07182e"/>
    </linearGradient>
    <linearGradient id="blue" x1="0" y1="0" x2="1" y2="1">
      <stop offset="0" stop-color="#17649e"/>
      <stop offset="1" stop-color="#0b5ca8"/>
    </linearGradient>
    <filter id="shadow" x="-30%" y="-30%" width="160%" height="160%">
      <feDropShadow dx="0" dy="12" stdDeviation="12" flood-color="#000814" flood-opacity=".58"/>
    </filter>
  </defs>

  <rect width="512" height="512" rx="112" fill="url(#background)"/>
  <rect x="18" y="18" width="476" height="476" rx="96" fill="none" stroke="#17649e" stroke-width="12"/>

  <g filter="url(#shadow)">
    <circle cx="122" cy="246" r="76" fill="none" stroke="#fff" stroke-width="34"/>
    <path d="m144 273 34 1 56 56h-42z" fill="url(#blue)"/>

    <path d="M222 170h102v32H222zm0 60h82v32h-82zm0 60h102v32H222z" fill="#fff"/>

    <path d="M350 170h32v152h-32zm86 0h32v152h-32zm-54 60h54v32h-54z" fill="#fff"/>
  </g>

  <g transform="translate(112 415)">
    <rect width="76" height="16" rx="8" fill="#ff5a00"/>
    <rect x="106" width="76" height="16" rx="8" fill="#82d246"/>
    <rect x="212" width="76" height="16" rx="8" fill="#f2cf79"/>
  </g>
</svg>
